#!OML:ASF H:\Terrain\Patient Classification 1\Walking\liu\liu.ASF
:FULLY-SPECIFIED
:DEGREES
39
root -2.98831 16.7032 -36.4112 1.12691 -1.04293 -2.4867
lowerback 11.4266 2.29123 -1.83966
upperback -2.4516 2.91623 1.39567
thorax -9.22177 1.55362 1.96654
lowerneck -4.02533 -3.71244 -6.72642
upperneck 4.26116 -4.89167 6.41518
head 2.46066 -2.38749 3.13032
rclavicle 1.64186e-014 3.19298e-015
rhumerus -32.1605 2.94363 -80.4832
rradius 30.5134
rwrist 3.08536
rhand -22.2725 -26.3574
rfingers 7.12502
rthumb 4.14567 -56.2968
lclavicle 1.64186e-014 3.19298e-015
lhumerus -26.4913 -5.20106 90.4365
lradius 25.9563
lwrist -29.6008
lhand -28.9052 29.9486
lfingers 7.12502
lthumb -2.2602 59.9164
rfemur -18.6004 -3.5908 14.4709
rtibia 43.3599
rfoot -23.1754 2.28843
rtoes -7.15487
lfemur -16.6906 2.85825 -8.4205
ltibia 39.5201
lfoot -18.9485 4.25291
ltoes -14.4823
40
root -2.98894 16.6975 -36.4137 1.06866 -1.01117 -2.41392
lowerback 11.5345 2.29177 -1.92216
upperback -2.45354 2.90177 1.38004
thorax -9.28955 1.55089 1.9955
lowerneck -3.96613 -3.6937 -6.72157
upperneck 4.25022 -4.87076 6.43181
head 2.4449 -2.37754 3.13672
rclavicle -1.79236e-014 -4.21175e-015
rhumerus -32.1783 2.9121 -80.4674
rradius 30.4458
rwrist 3.0544
rhand -22.2578 -26.4247
rfingers 7.12502
rthumb 4.15983 -56.3639
lclavicle -1.79236e-014 -4.21175e-015
lhumerus -26.501 -5.18722 90.4383
lradius 25.8805
lwrist -29.6758
lhand -28.8961 29.8277
lfingers 7.12502
lthumb -2.25138 59.7956
rfemur -18.6114 -3.70095 14.3897
rtibia 43.4886
rfoot -23.2054 2.28131
rtoes -7.13881
lfemur -16.7042 2.96149 -8.49211
ltibia 39.6118
lfoot -18.9323 3.95436
ltoes -13.8841
41
root -2.98916 16.6927 -36.4156 1.00162 -0.996743 -2.40618
lowerback 11.6655 2.29024 -1.92501
upperback -2.45773 2.89661 1.37167
thorax -9.36979 1.54856 1.98474
lowerneck -3.91641 -3.70185 -6.73229
upperneck 4.24342 -4.8854 6.46245
head 2.43608 -2.38507 3.14933
rclavicle -1.38417e-014 -3.516e-015
rhumerus -32.2263 2.83892 -80.4629
rradius 30.3944
rwrist 3.08671
rhand -22.2611 -26.4572
rfingers 7.12502
rthumb 4.15668 -56.3964
lclavicle -1.38417e-014 -3.516e-015
lhumerus -26.4961 -5.12344 90.4121
lradius 25.7755
lwrist -29.7891
lhand -28.8766 29.8529
lfingers 7.12502
lthumb -2.23254 59.8209
rfemur -18.6148 -3.76074 14.3822
rtibia 43.6182
rfoot -23.2422 2.28749
rtoes -7.03545
lfemur -16.7075 3.09816 -8.49256
ltibia 39.7113
lfoot -18.9363 3.64996
ltoes -13.2848
42
root -2.9895 16.6893 -36.4173 0.947911 -0.99144 -2.29524
lowerback 11.7724 2.30026 -2.03787
upperback -2.44975 2.88828 1.33999
thorax -9.42721 1.54984 2.01264
lowerneck -3.90212 -3.70921 -6.73776
upperneck 4.21776 -4.89576 6.48053
head 2.42652 -2.3901 3.1563
rclavicle 6.48147e-015 -9.15652e-015
rhumerus -32.2387 2.78165 -80.4537
rradius 30.3413
rwrist 3.10543
rhand -22.232 -26.5942
rfingers 7.12502
rthumb 4.18469 -56.5329
lclavicle 6.48147e-015 -9.15652e-015
lhumerus -26.4592 -5.07946 90.3919
lradius 25.6609
lwrist -29.9086
lhand -28.9373 29.6481
lfingers 7.12502
lthumb -2.2912 59.6156
rfemur -18.6382 -3.85422 14.2531
rtibia 43.7619
rfoot -23.3077 2.36562
rtoes -6.22464
lfemur -16.7055 3.23345 -8.61306
ltibia 39.7893
lfoot -18.9438 3.4041
ltoes -12.7457
43
root -2.99032 16.6832 -36.4188 0.888928 -1.00668 -2.21046
lowerback 11.8685 2.31292 -2.14007
upperback -2.42696 2.88582 1.31843
thorax -9.46245 1.55344 2.0448
lowerneck -3.91791 -3.72137 -6.74501
upperneck 4.20946 -4.91114 6.4939
head 2.42863 -2.39729 3.16146
rclavicle -6.23737e-014 -2.24875e-014
rhumerus -32.2045 2.73746 -80.4528
rradius 30.2447
rwrist 3.15761
rhand -22.2602 -26.5462
rfingers 7.12502
rthumb 4.1575 -56.4854
lclavicle -6.23737e-014 -2.24875e-014
lhumerus -26.4035 -5.01025 90.357
lradius 25.5763
lwrist -30.0097
lhand -28.9098 29.7064
lfingers 7.12502
lthumb -2.26463 59.6741
rfemur -18.6649 -3.92435 14.1565
rtibia 43.9095
rfoot -23.361 2.4305
rtoes -5.3992
lfemur -16.6931 3.38691 -8.69233
ltibia 39.8624
lfoot -18.9594 3.18377
ltoes -12.3328
44
root -2.98957 16.6788 -36.4208 0.824958 -1.02429 -2.19457
lowerback 11.9978 2.32937 -2.13585
upperback -2.43073 2.90432 1.2981
thorax -9.54158 1.56174 2.01244
lowerneck -3.84822 -3.73141 -6.76935
upperneck 4.17047 -4.92936 6.56058
head 2.40755 -2.40631 3.18922
rclavicle -2.41065e-015 2.33572e-015
rhumerus -32.2601 2.6783 -80.4618
rradius 30.2165
rwrist 3.16032
rhand -22.2323 -26.5307
rfingers 7.12502
rthumb 4.18441 -56.4693
lclavicle -2.41065e-015 2.33572e-015
lhumerus -26.4019 -4.95182 90.315
lradius 25.4965
lwrist -30.1468
lhand -28.9129 29.8399
lfingers 7.12502
lthumb -2.26759 59.8076
rfemur -18.6813 -4.00784 14.1346
rtibia 44.0525
rfoot -23.4311 2.49932
rtoes -5.14394
lfemur -16.6631 3.52319 -8.70111
ltibia 39.9311
lfoot -18.9964 2.99218
ltoes -11.9854
45
root -2.98912 16.674 -36.4205 0.797228 -1.03381 -2.0959
lowerback 12.0549 2.35269 -2.21523
upperback -2.43548 2.91793 1.25237
thorax -9.58265 1.57142 2.00325
lowerneck -3.79204 -3.75554 -6.77225
upperneck 4.14438 -4.96549 6.59152
head 2.39246 -2.42453 3.1996
rclavicle 9.2299e-015 1.68967e-015
rhumerus -32.2845 2.58518 -80.463
rradius 30.1472
rwrist 3.19262
rhand -22.2152 -26.5962
rfingers 7.12502
rthumb 4.20099 -56.5345
lclavicle 9.2299e-015 1.68967e-015
lhumerus -26.3896 -4.95852 90.2855
lradius 25.413
lwrist -30.2344
lhand -28.9584 29.7744
lfingers 7.12502
lthumb -2.31154 59.7416
rfemur -18.7303 -4.08656 14.0159
rtibia 44.1984
rfoot -23.4998 2.5536
rtoes -4.93018
lfemur -16.6752 3.66183 -8.8056
ltibia 40.003
lfoot -19.0004 2.83432
ltoes -11.8033
46
root -2.98807 16.6689 -36.4216 0.763203 -1.02386 -2.03796
lowerback 12.1176 2.35891 -2.24557
upperback -2.41578 2.91729 1.22142
thorax -9.59739 1.57149 1.98546
lowerneck -3.81687 -3.76629 -6.80478
upperneck 4.14447 -4.97998 6.65369
head 2.4019 -2.43041 3.22653
rclavicle 3.23363e-014 4.82053e-015
rhumerus -32.2773 2.55753 -80.4829
rradius 30.1112
rwrist 3.20687
rhand -22.184 -26.5428
rfingers 7.12502
rthumb 4.23106 -56.4806
lclavicle 3.23363e-014 4.82053e-015
lhumerus -26.3302 -4.90887 90.2369
lradius 25.3365
lwrist -30.2995
lhand -28.9576 29.8048
lfingers 7.12502
lthumb -2.31077 59.772
rfemur -18.7674 -4.19981 13.9394
rtibia 44.3321
rfoot -23.573 2.63375
rtoes -4.84695
lfemur -16.6797 3.75565 -8.862
ltibia 40.0718
lfoot -19.0386 2.59823
ltoes -11.2319
47
root -2.98708 16.6638 -36.4219 0.753663 -1.02475 -1.98784
lowerback 12.1784 2.36553 -2.28043
upperback -2.43116 2.9173 1.19731
thorax -9.65025 1.57307 1.97684
lowerneck -3.79351 -3.79014 -6.79623
upperneck 4.16149 -5.01366 6.6373
head 2.40485 -2.44782 3.2181
rclavicle 9.55486e-016 9.14409e-015
rhumerus -32.2921 2.49623 -80.4923
rradius 30.031
rwrist 3.24356
rhand -22.1177 -26.4989
rfingers 7.12502
rthumb 4.29516 -56.4354
lclavicle 9.55486e-016 9.14409e-015
lhumerus -26.3136 -4.82223 90.1847
lradius 25.2466
lwrist -30.3976
lhand -29.0361 29.6533
lfingers 7.12502
lthumb -2.38654 59.6196
rfemur -18.8274 -4.29688 13.8755
rtibia 44.4629
rfoot -23.6466 2.67035
rtoes -4.96553
lfemur -16.717 3.85068 -8.91628
ltibia 40.142
lfoot -19.029 2.45007
ltoes -11.0012
